<?xml version="1.0" standalone="no"?>
<!DOCTYPE svg PUBLIC "-//W3C//DTD SVG 20010904//EN"
 "http://www.w3.org/TR/2001/REC-SVG-20010904/DTD/svg10.dtd">
<svg version="1.0" xmlns="http://www.w3.org/2000/svg"
 width="256.000000pt" height="256.000000pt" viewBox="0 0 256.000000 256.000000"
 preserveAspectRatio="xMidYMid meet">
<metadata>
Created by potrace 1.14, written by Peter Selinger 2001-2017
</metadata>
<g transform="translate(0.000000,256.000000) scale(0.100000,-0.100000)"
fill="#000000" stroke="none">
<path d="M1055 2390 c-91 -14 -102 -31 -109 -169 -4 -73 -11 -122 -20 -136
-19 -29 -84 -60 -119 -57 -30 2 -292 77 -392 112 -33 11 -85 23 -117 27 -54 5
-57 5 -71 -23 -9 -17 -12 -36 -7 -44 4 -8 7 -26 5 -40 -2 -31 22 -70 44 -71
11 0 12 -2 3 -6 -10 -4 -8 -9 8 -20 15 -11 18 -18 11 -27 -8 -10 -5 -18 12
-32 l22 -19 -19 23 c-11 12 -15 22 -10 22 5 0 15 -10 23 -21 11 -18 11 -23 -1
-30 -9 -6 -7 -9 8 -9 12 0 25 -7 28 -16 10 -26 7 -29 -10 -8 -14 18 -15 18 -4
-4 8 -15 17 -21 27 -18 14 6 14 4 2 -11 -11 -13 -11 -15 -1 -9 14 8 32 -9 53
-49 l10 -20 -16 20 c-17 20 -17 20 -11 -1 5 -16 0 -23 -19 -32 -14 -6 -25 -20
-26 -29 0 -10 -4 -51 -8 -91 -6 -65 -5 -75 11 -83 10 -6 16 -15 12 -20 -3 -6
0 -9 8 -7 7 2 13 -1 13 -7 0 -5 -4 -9 -8 -7 -5 1 -6 -1 -3 -6 7 -13 -23 -91
-48 -124 -12 -14 -37 -49 -56 -77 -19 -28 -40 -51 -47 -51 -18 0 -27 -21 -13
-30 7 -4 9 -13 5 -20 -11 -18 -12 -166 -2 -230 5 -30 18 -75 30 -100 12 -25
23 -49 26 -54 2 -5 -2 -5 -9 -1 -9 6 -9 3 -1 -14 7 -11 17 -21 24 -21 7 0 6 4
-3 10 -9 6 -10 10 -3 10 7 0 16 -6 20 -13 4 -7 21 -23 37 -35 32 -25 45 -55
19 -45 -12 5 -12 7 -1 15 10 7 8 8 -5 4 -12 -4 -16 -2 -11 6 5 7 3 8 -6 3 -9
-6 -11 -4 -5 5 6 9 4 11 -5 5 -8 -5 -11 -4 -7 2 4 6 0 14 -9 17 -29 11 -27 6
19 -40 39 -39 49 -44 64 -34 15 10 15 11 1 6 -12 -3 -15 -1 -11 10 5 13 8 13
23 -1 9 -8 20 -12 25 -8 4 5 5 3 2 -3 -4 -7 3 -14 18 -18 18 -5 24 -12 22 -28
-1 -13 3 -23 8 -23 6 0 16 -4 23 -8 6 -5 12 -5 12 -1 0 4 7 -1 15 -12 14 -18
14 -17 4 8 -11 26 -21 32 -41 29 -5 0 -8 3 -8 9 0 23 32 7 54 -28 21 -33 22
-38 7 -44 -14 -6 -14 -7 2 -7 9 -1 17 -8 17 -16 0 -27 1 -30 18 -49 9 -11 11
-16 5 -12 -18 10 -16 -9 2 -28 9 -8 16 -18 15 -21 0 -3 2 -4 5 -2 2 1 12 -8
20 -21 10 -13 21 -19 28 -15 17 11 37 12 37 3 0 -4 9 -10 21 -13 12 -3 18 -10
14 -16 -5 -9 17 -16 29 -8 3 1 16 -9 30 -22 14 -14 26 -21 26 -18 0 4 9 -1 20
-11 12 -9 24 -16 28 -15 4 1 13 -3 20 -9 6 -6 12 -7 12 -4 0 4 7 0 16 -8 8 -9
20 -14 25 -11 5 4 9 2 9 -4 0 -10 29 -23 41 -18 3 1 13 -4 22 -12 10 -7 17
-10 17 -6 0 4 8 1 17 -6 11 -10 14 -10 9 -1 -4 6 -3 12 2 12 6 0 12 -7 16 -15
3 -8 12 -12 21 -9 8 3 12 11 9 16 -4 6 -10 5 -16 -3 -8 -11 -9 -10 -5 3 4 12
0 15 -18 13 -14 -1 -22 1 -19 6 2 4 -4 6 -15 4 -14 -3 -18 1 -14 12 3 8 9 11
12 6 7 -10 30 -16 54 -15 9 0 17 -4 17 -9 0 -6 4 -7 10 -4 5 3 19 1 30 -5 26
-14 56 -22 93 -24 15 0 27 -3 27 -6 0 -3 12 -6 28 -6 89 -5 114 -20 32 -20
-27 0 -44 4 -37 8 6 4 -5 6 -25 4 -21 -2 -36 0 -33 4 2 4 -6 7 -18 6 -12 -1
-33 5 -47 14 -13 8 -21 10 -18 4 4 -6 1 -11 -6 -11 -8 0 -12 6 -9 14 3 7 1 13
-4 13 -5 0 -9 -9 -10 -20 -2 -17 3 -19 28 -15 19 3 28 1 27 -6 -2 -6 5 -13 15
-14 10 -2 14 1 11 7 -4 6 -1 8 7 6 8 -3 13 -11 11 -17 -1 -6 2 -11 8 -11 5 0
10 5 10 11 0 6 5 7 13 2 6 -4 23 -8 37 -9 14 0 24 -6 22 -13 -1 -8 2 -10 10
-5 19 12 72 12 80 0 5 -7 8 -7 8 2 0 8 5 10 12 6 7 -5 20 -9 30 -9 13 -1 15 2
7 17 -5 10 -12 18 -15 18 -3 0 -2 -5 2 -12 4 -7 3 -8 -4 -4 -21 13 -13 24 17
22 16 0 27 -4 25 -8 -8 -12 11 -9 24 4 6 6 33 13 59 14 26 2 57 5 70 9 25 6
29 -2 12 -25 -9 -12 -10 -11 -5 5 6 20 6 20 -9 1 -8 -11 -15 -14 -15 -8 0 13
-26 12 -47 -1 -7 -5 -13 -5 -13 -1 0 3 -6 2 -12 -3 -7 -5 -27 -9 -45 -8 -17 0
-30 -2 -27 -6 4 -6 85 -5 92 1 7 7 28 4 34 -5 5 -6 8 -6 8 2 0 6 8 10 19 8 16
-3 58 32 53 45 0 3 8 5 18 4 11 0 20 3 20 8 0 5 5 6 10 3 6 -3 10 -1 10 5 0 7
6 10 14 7 8 -3 16 -1 19 6 2 6 6 5 9 -5 5 -11 2 -15 -10 -13 -9 1 -29 -6 -44
-17 -16 -11 -28 -15 -28 -9 0 6 -5 11 -12 11 -6 0 -8 -3 -5 -7 4 -3 2 -12 -4
-19 -7 -9 -6 -12 5 -10 9 1 18 5 22 8 3 4 12 4 20 1 9 -3 14 1 14 12 0 9 4 14
9 10 5 -3 12 -1 16 5 4 6 11 7 17 4 6 -4 14 0 19 7 6 10 11 11 17 3 4 -5 18
-10 32 -10 14 0 28 5 33 10 4 7 10 6 17 -4 5 -8 10 -10 10 -4 0 6 17 10 39 10
22 -1 37 2 35 6 -3 5 0 8 5 8 6 0 11 8 11 18 -1 15 -2 15 -10 1 -6 -11 -20
-16 -40 -14 -17 1 -32 -1 -35 -5 -2 -4 -16 -6 -30 -5 -14 2 -23 0 -21 -4 3 -4
-4 -7 -14 -7 -10 0 -17 3 -14 7 2 4 -6 6 -19 5 -13 -2 -24 2 -24 9 0 12 32 14
43 2 10 -10 26 -9 20 1 -3 5 9 8 27 7 18 -1 42 1 53 6 13 4 26 3 33 -4 8 -8
11 -6 11 7 0 12 5 16 14 13 8 -3 17 1 20 9 3 8 11 13 18 12 7 -2 12 3 10 10
-2 11 7 12 38 8 31 -4 39 -2 34 7 -4 6 -4 9 1 5 4 -4 14 -3 21 3 8 7 14 6 20
-2 5 -8 3 -9 -6 -4 -9 5 -11 4 -6 -4 4 -7 2 -10 -5 -9 -6 2 -14 -4 -16 -12 -4
-12 -3 -12 5 -2 5 8 11 12 14 10 8 -6 63 48 66 66 3 15 1 16 -11 5 -8 -8 -12
-18 -9 -23 3 -5 0 -6 -6 -2 -15 9 55 96 78 97 10 0 11 2 3 6 -7 2 -13 9 -13
14 0 6 4 8 8 5 4 -2 14 4 21 16 7 11 8 17 2 13 -6 -3 -11 -1 -11 4 0 6 5 11
11 11 5 0 7 5 4 10 -3 6 -2 10 3 10 5 0 9 6 10 13 2 31 14 73 25 86 10 12 9
13 -3 6 -12 -7 -13 -6 -3 7 7 8 10 18 6 21 -3 4 -2 7 4 7 5 0 10 6 10 13 0 12
8 58 19 112 15 77 10 195 -14 310 -11 51 -21 115 -25 150 -1 11 -6 23 -11 27
-6 4 -5 12 2 21 16 19 -1 69 -21 61 -9 -3 -23 14 -39 48 -21 42 -25 63 -21 99
12 112 -83 208 -277 279 -47 17 -92 36 -101 43 -9 7 -36 46 -61 87 -57 93
-121 134 -169 109 -13 -7 -35 13 -102 95 -47 56 -113 128 -146 158 -56 53
-147 105 -195 113 -56 10 -74 11 -111 5z m-805 -360 c0 -5 -2 -10 -4 -10 -3 0
-8 5 -11 10 -3 6 -1 10 4 10 6 0 11 -4 11 -10z m379 -1598 c13 -19 37 -22 59
-8 8 5 11 3 10 -6 -2 -7 3 -12 10 -10 8 1 11 -2 7 -8 -3 -5 1 -10 9 -10 9 0
16 -4 16 -10 0 -5 6 -7 14 -4 7 3 16 -2 20 -11 3 -9 10 -14 15 -11 5 4 17 -1
25 -10 9 -8 16 -13 16 -9 0 4 12 -3 26 -14 15 -12 33 -21 40 -21 8 0 11 -6 7
-16 -4 -12 -7 -13 -14 -3 -4 8 -11 10 -15 6 -4 -4 -18 3 -31 15 -13 12 -23 18
-23 13 0 -5 -12 2 -26 16 -14 13 -26 22 -27 19 -1 -2 -17 7 -35 20 -37 27 -51
31 -69 17 -8 -5 -15 -1 -23 13 -6 12 -16 18 -23 14 -7 -4 -9 -4 -5 1 4 4 3 14
-3 22 -6 7 -7 13 -2 13 5 0 15 -8 22 -18z m1541 -107 c0 -12 -19 -12 -23 0 -4
9 -1 12 9 8 7 -3 14 -7 14 -8z m-1220 -51 c22 -4 60 -25 60 -33 0 -20 -18 -20
-44 0 -14 11 -26 17 -26 14 0 -4 -7 -2 -15 5 -17 14 -10 34 8 23 7 -4 14 -8
17 -9z m469 -127 c12 -19 12 -20 0 -11 -8 6 -22 10 -32 9 -14 -3 -15 0 -8 9 6
7 8 16 4 20 -4 4 -1 4 8 1 8 -3 21 -15 28 -28z"/>
<path d="M790 346 c0 -2 8 -10 18 -17 15 -13 16 -12 3 4 -13 16 -21 21 -21 13z"/>
<path d="M845 310 c10 -11 20 -20 23 -20 3 0 -3 9 -13 20 -10 11 -20 20 -23
20 -3 0 3 -9 13 -20z"/>
<path d="M950 266 c0 -2 8 -10 18 -17 15 -13 16 -12 3 4 -13 16 -21 21 -21 13z"/>
<path d="M267 1949 c7 -7 15 -10 18 -7 3 3 -2 9 -12 12 -14 6 -15 5 -6 -5z"/>
<path d="M375 1780 c-3 -5 1 -10 10 -10 9 0 13 5 10 10 -3 6 -8 10 -10 10 -2
0 -7 -4 -10 -10z"/>
<path d="M350 1503 c0 -5 5 -15 10 -23 7 -12 9 -10 7 8 -1 19 -17 33 -17 15z"/>
<path d="M406 651 c-5 -7 -5 -15 -2 -18 3 -4 6 0 6 8 1 10 4 9 11 -4 6 -9 14
-15 20 -12 5 4 9 -2 9 -12 0 -15 2 -16 10 -3 9 14 -2 27 -14 18 -3 -2 -11 6
-19 16 -10 14 -16 16 -21 7z"/>
<path d="M2216 396 c-11 -18 -13 -27 -4 -32 7 -4 8 -3 4 5 -4 6 -1 14 7 17 7
2 14 11 14 19 0 20 -2 19 -21 -9z"/>
<path d="M2042 274 c-7 -8 -17 -12 -22 -9 -9 6 -23 -25 -15 -33 3 -3 5 0 5 7
0 7 5 9 10 6 6 -3 10 -1 10 5 0 7 8 9 22 5 17 -6 20 -4 14 11 -6 18 -5 18 9 0
8 -11 15 -14 15 -8 0 7 1 15 3 19 5 13 -39 11 -51 -3z"/>
<path d="M1505 159 c-3 -4 2 -6 10 -5 21 3 28 13 10 13 -9 0 -18 -4 -20 -8z"/>
</g>
</svg>
